<mxfile host="Electron" modified="2023-07-13T12:38:20.828Z" agent="Mozilla/5.0 (X11; Linux x86_64) AppleWebKit/537.36 (KHTML, like Gecko) draw.io/21.5.1 Chrome/112.0.5615.204 Electron/24.6.0 Safari/537.36" etag="MjoGPXM-ZFhv6ukzmnsL" version="21.5.1" type="device">
  <diagram name="Page-1" id="AyaffFxagdanyMF8PeOx">
    <mxGraphModel dx="1195" dy="1825" grid="1" gridSize="10" guides="1" tooltips="1" connect="1" arrows="1" fold="1" page="1" pageScale="1" pageWidth="850" pageHeight="1100" background="#ffffff" math="0" shadow="0">
      <root>
        <mxCell id="0" />
        <mxCell id="1" parent="0" />
        <mxCell id="YDlmFPabkfhio8FpUHPa-33" value="" style="group;fillColor=#FFFFFF;gradientColor=none;rounded=1;" parent="1" vertex="1" connectable="0">
          <mxGeometry x="40" y="160" width="240" height="120" as="geometry" />
        </mxCell>
        <mxCell id="X5iQuCoutbYAk6WdKfz_-6" value="" style="group" parent="YDlmFPabkfhio8FpUHPa-33" vertex="1" connectable="0">
          <mxGeometry width="240" height="120" as="geometry" />
        </mxCell>
        <mxCell id="YDlmFPabkfhio8FpUHPa-25" value="" style="rounded=1;whiteSpace=wrap;html=1;shadow=0;dashed=0;labelBackgroundColor=#ffffff;strokeColor=#000000;strokeWidth=2;fontFamily=Helvetica;fontSize=12;fontColor=default;fillColor=none;" parent="X5iQuCoutbYAk6WdKfz_-6" vertex="1">
          <mxGeometry width="240" height="120" as="geometry" />
        </mxCell>
        <mxCell id="YDlmFPabkfhio8FpUHPa-27" value="&lt;h1&gt;&lt;font color=&quot;#000000&quot;&gt;ROS.bag&lt;/font&gt;&lt;/h1&gt;" style="text;html=1;strokeColor=none;fillColor=none;align=center;verticalAlign=middle;whiteSpace=wrap;rounded=0;fontSize=12;fontFamily=Helvetica;fontColor=default;" parent="X5iQuCoutbYAk6WdKfz_-6" vertex="1">
          <mxGeometry x="90" y="20" width="60" height="30" as="geometry" />
        </mxCell>
        <mxCell id="YDlmFPabkfhio8FpUHPa-28" value="" style="html=1;verticalLabelPosition=bottom;align=center;labelBackgroundColor=#ffffff;verticalAlign=top;strokeWidth=2;strokeColor=#000000;shadow=0;dashed=0;shape=mxgraph.ios7.icons.folder;fontFamily=Helvetica;fontSize=12;fontColor=default;fillColor=none;aspect=fixed;" parent="X5iQuCoutbYAk6WdKfz_-6" vertex="1">
          <mxGeometry x="101.09000000000003" y="70" width="37.82" height="29.5" as="geometry" />
        </mxCell>
        <mxCell id="X5iQuCoutbYAk6WdKfz_-5" value="" style="group" parent="1" vertex="1" connectable="0">
          <mxGeometry x="400" y="40" width="260" height="120" as="geometry" />
        </mxCell>
        <mxCell id="Ypv9IJrqPmgP_WFYDXx4-177" value="" style="group;fillColor=none;" parent="X5iQuCoutbYAk6WdKfz_-5" vertex="1" connectable="0">
          <mxGeometry y="40" width="240" height="120" as="geometry" />
        </mxCell>
        <mxCell id="X5iQuCoutbYAk6WdKfz_-2" value="" style="rounded=1;whiteSpace=wrap;html=1;pointerEvents=0;fontFamily=Helvetica;fontSize=12;fontColor=default;fillColor=#CCFF99;gradientColor=none;strokeColor=#000000;strokeWidth=2;" parent="Ypv9IJrqPmgP_WFYDXx4-177" vertex="1">
          <mxGeometry width="240" height="120" as="geometry" />
        </mxCell>
        <mxCell id="X5iQuCoutbYAk6WdKfz_-3" value="&lt;h1&gt;&lt;font color=&quot;#000000&quot;&gt;Sonar image messsages&lt;/font&gt;&lt;/h1&gt;" style="text;html=1;strokeColor=none;fillColor=none;align=center;verticalAlign=middle;whiteSpace=wrap;rounded=0;fontSize=12;fontFamily=Helvetica;fontColor=default;" parent="Ypv9IJrqPmgP_WFYDXx4-177" vertex="1">
          <mxGeometry x="10" y="20" width="220" height="30" as="geometry" />
        </mxCell>
        <mxCell id="X5iQuCoutbYAk6WdKfz_-4" value="" style="html=1;verticalLabelPosition=bottom;align=center;labelBackgroundColor=#ffffff;verticalAlign=top;strokeWidth=2;strokeColor=#000000;shadow=0;dashed=0;shape=mxgraph.ios7.icons.video_conversation;rounded=1;pointerEvents=0;fontFamily=Helvetica;fontSize=12;fontColor=default;fillColor=#FFFFFF;gradientColor=none;aspect=fixed;" parent="Ypv9IJrqPmgP_WFYDXx4-177" vertex="1">
          <mxGeometry x="101.5" y="80" width="37" height="18.5" as="geometry" />
        </mxCell>
        <mxCell id="b7XjPN8m84lvSE9hFcEj-6" value="&lt;h1&gt;&lt;font color=&quot;#000000&quot;&gt;Data Extraction&lt;/font&gt;&lt;/h1&gt;" style="text;html=1;strokeColor=none;fillColor=none;align=center;verticalAlign=middle;whiteSpace=wrap;rounded=0;fontSize=12;fontFamily=Helvetica;fontColor=default;" vertex="1" parent="X5iQuCoutbYAk6WdKfz_-5">
          <mxGeometry x="-20" width="280" height="30" as="geometry" />
        </mxCell>
        <mxCell id="Ypv9IJrqPmgP_WFYDXx4-28" style="shape=connector;rounded=0;orthogonalLoop=1;jettySize=auto;html=1;exitX=1;exitY=0.5;exitDx=0;exitDy=0;entryX=-0.001;entryY=0.724;entryDx=0;entryDy=0;entryPerimeter=0;labelBackgroundColor=default;strokeColor=#000000;strokeWidth=3;fontFamily=Helvetica;fontSize=12;fontColor=default;endArrow=classic;" parent="1" source="X5iQuCoutbYAk6WdKfz_-11" target="Ypv9IJrqPmgP_WFYDXx4-26" edge="1">
          <mxGeometry relative="1" as="geometry" />
        </mxCell>
        <mxCell id="X5iQuCoutbYAk6WdKfz_-14" style="rounded=0;orthogonalLoop=1;jettySize=auto;html=1;exitX=1;exitY=0.5;exitDx=0;exitDy=0;entryX=0;entryY=0.5;entryDx=0;entryDy=0;fontFamily=Helvetica;fontSize=12;fontColor=default;strokeWidth=3;strokeColor=#000000;" parent="1" source="YDlmFPabkfhio8FpUHPa-25" target="X5iQuCoutbYAk6WdKfz_-2" edge="1">
          <mxGeometry relative="1" as="geometry" />
        </mxCell>
        <mxCell id="X5iQuCoutbYAk6WdKfz_-17" style="shape=connector;rounded=0;orthogonalLoop=1;jettySize=auto;html=1;exitX=1;exitY=0.5;exitDx=0;exitDy=0;entryX=0;entryY=0.5;entryDx=0;entryDy=0;labelBackgroundColor=default;strokeColor=#000000;strokeWidth=3;fontFamily=Helvetica;fontSize=12;fontColor=default;endArrow=classic;" parent="1" source="YDlmFPabkfhio8FpUHPa-25" target="X5iQuCoutbYAk6WdKfz_-11" edge="1">
          <mxGeometry relative="1" as="geometry" />
        </mxCell>
        <mxCell id="Ypv9IJrqPmgP_WFYDXx4-29" style="shape=connector;rounded=0;orthogonalLoop=1;jettySize=auto;html=1;exitX=1;exitY=0.5;exitDx=0;exitDy=0;entryX=-0.004;entryY=0.279;entryDx=0;entryDy=0;entryPerimeter=0;labelBackgroundColor=default;strokeColor=#000000;strokeWidth=3;fontFamily=Helvetica;fontSize=12;fontColor=default;endArrow=classic;" parent="1" source="X5iQuCoutbYAk6WdKfz_-2" target="Ypv9IJrqPmgP_WFYDXx4-26" edge="1">
          <mxGeometry relative="1" as="geometry" />
        </mxCell>
        <mxCell id="Ypv9IJrqPmgP_WFYDXx4-77" style="edgeStyle=none;shape=connector;rounded=0;orthogonalLoop=1;jettySize=auto;html=1;exitX=0;exitY=0.5;exitDx=0;exitDy=0;labelBackgroundColor=default;strokeColor=#000000;strokeWidth=3;fontFamily=Helvetica;fontSize=12;fontColor=default;endArrow=none;startArrow=classic;startFill=1;endFill=0;" parent="1" source="Ypv9IJrqPmgP_WFYDXx4-56" edge="1">
          <mxGeometry relative="1" as="geometry">
            <mxPoint x="100" y="620" as="targetPoint" />
          </mxGeometry>
        </mxCell>
        <mxCell id="Ypv9IJrqPmgP_WFYDXx4-105" style="edgeStyle=none;shape=connector;rounded=0;orthogonalLoop=1;jettySize=auto;html=1;exitX=1;exitY=0.5;exitDx=0;exitDy=0;labelBackgroundColor=default;strokeColor=#000000;strokeWidth=3;fontFamily=Helvetica;fontSize=12;fontColor=default;endArrow=classic;" parent="1" source="Ypv9IJrqPmgP_WFYDXx4-56" target="Ypv9IJrqPmgP_WFYDXx4-106" edge="1">
          <mxGeometry relative="1" as="geometry">
            <mxPoint x="580" y="640" as="targetPoint" />
          </mxGeometry>
        </mxCell>
        <mxCell id="Ypv9IJrqPmgP_WFYDXx4-56" value="" style="rounded=1;whiteSpace=wrap;html=1;strokeColor=#000000;strokeWidth=2;fontFamily=Helvetica;fontSize=12;fontColor=default;fillColor=#FFFFFF;" parent="1" vertex="1">
          <mxGeometry x="180" y="480" width="250" height="280" as="geometry" />
        </mxCell>
        <mxCell id="Ypv9IJrqPmgP_WFYDXx4-60" value="" style="group" parent="1" vertex="1" connectable="0">
          <mxGeometry x="720" y="-30" width="360" height="430" as="geometry" />
        </mxCell>
        <mxCell id="Ypv9IJrqPmgP_WFYDXx4-34" value="" style="endArrow=none;html=1;rounded=0;labelBackgroundColor=default;strokeColor=#000000;strokeWidth=3;fontFamily=Helvetica;fontSize=12;fontColor=default;shape=connector;" parent="Ypv9IJrqPmgP_WFYDXx4-60" edge="1">
          <mxGeometry width="50" height="50" relative="1" as="geometry">
            <mxPoint x="250" y="230" as="sourcePoint" />
            <mxPoint x="250" y="190" as="targetPoint" />
          </mxGeometry>
        </mxCell>
        <mxCell id="Ypv9IJrqPmgP_WFYDXx4-35" value="" style="endArrow=none;html=1;rounded=0;labelBackgroundColor=default;strokeColor=#000000;strokeWidth=3;fontFamily=Helvetica;fontSize=12;fontColor=default;shape=connector;" parent="Ypv9IJrqPmgP_WFYDXx4-60" edge="1">
          <mxGeometry width="50" height="50" relative="1" as="geometry">
            <mxPoint x="90" y="230" as="sourcePoint" />
            <mxPoint x="90" y="190" as="targetPoint" />
          </mxGeometry>
        </mxCell>
        <mxCell id="Ypv9IJrqPmgP_WFYDXx4-55" value="" style="group" parent="Ypv9IJrqPmgP_WFYDXx4-60" vertex="1" connectable="0">
          <mxGeometry width="360" height="430" as="geometry" />
        </mxCell>
        <mxCell id="Ypv9IJrqPmgP_WFYDXx4-64" style="edgeStyle=none;shape=connector;rounded=0;orthogonalLoop=1;jettySize=auto;html=1;exitX=1;exitY=0.5;exitDx=0;exitDy=0;labelBackgroundColor=default;strokeColor=#000000;strokeWidth=3;fontFamily=Helvetica;fontSize=12;fontColor=default;endArrow=classic;" parent="Ypv9IJrqPmgP_WFYDXx4-55" source="Ypv9IJrqPmgP_WFYDXx4-26" edge="1">
          <mxGeometry relative="1" as="geometry">
            <mxPoint x="430" y="249.52941176470586" as="targetPoint" />
          </mxGeometry>
        </mxCell>
        <mxCell id="Ypv9IJrqPmgP_WFYDXx4-26" value="" style="rounded=1;whiteSpace=wrap;html=1;strokeColor=#000000;strokeWidth=2;fontFamily=Helvetica;fontSize=12;fontColor=default;fillColor=#FFFFFF;" parent="Ypv9IJrqPmgP_WFYDXx4-55" vertex="1">
          <mxGeometry y="70" width="360" height="360" as="geometry" />
        </mxCell>
        <mxCell id="Ypv9IJrqPmgP_WFYDXx4-32" value="&lt;h2&gt;&lt;font color=&quot;#000000&quot;&gt;t&lt;/font&gt;&lt;/h2&gt;" style="text;html=1;strokeColor=none;fillColor=none;align=center;verticalAlign=middle;whiteSpace=wrap;rounded=0;fontSize=12;fontFamily=Helvetica;fontColor=default;" parent="Ypv9IJrqPmgP_WFYDXx4-55" vertex="1">
          <mxGeometry x="300" y="170" width="60" height="30" as="geometry" />
        </mxCell>
        <mxCell id="Ypv9IJrqPmgP_WFYDXx4-33" value="&lt;h2&gt;&lt;font color=&quot;#000000&quot;&gt;t&lt;/font&gt;&lt;/h2&gt;" style="text;html=1;strokeColor=none;fillColor=none;align=center;verticalAlign=middle;whiteSpace=wrap;rounded=0;fontSize=12;fontFamily=Helvetica;fontColor=default;" parent="Ypv9IJrqPmgP_WFYDXx4-55" vertex="1">
          <mxGeometry x="300" y="330" width="60" height="30" as="geometry" />
        </mxCell>
        <mxCell id="Ypv9IJrqPmgP_WFYDXx4-46" value="" style="group" parent="Ypv9IJrqPmgP_WFYDXx4-55" vertex="1" connectable="0">
          <mxGeometry x="20" y="169.52" width="310.05999999999995" height="0.47999999999998977" as="geometry" />
        </mxCell>
        <mxCell id="Ypv9IJrqPmgP_WFYDXx4-30" value="" style="endArrow=classic;html=1;rounded=0;labelBackgroundColor=default;strokeColor=#000000;strokeWidth=3;fontFamily=Helvetica;fontSize=12;fontColor=default;entryX=0.917;entryY=0.278;entryDx=0;entryDy=0;entryPerimeter=0;endFill=1;" parent="Ypv9IJrqPmgP_WFYDXx4-46" edge="1">
          <mxGeometry width="50" height="50" relative="1" as="geometry">
            <mxPoint x="50" y="0.47999999999998977" as="sourcePoint" />
            <mxPoint x="310.05999999999995" y="0.26999999999992497" as="targetPoint" />
          </mxGeometry>
        </mxCell>
        <mxCell id="Ypv9IJrqPmgP_WFYDXx4-43" value="" style="endArrow=none;dashed=1;html=1;dashPattern=1 3;strokeWidth=2;rounded=0;labelBackgroundColor=default;strokeColor=#000000;fontFamily=Helvetica;fontSize=12;fontColor=default;shape=connector;" parent="Ypv9IJrqPmgP_WFYDXx4-46" edge="1">
          <mxGeometry width="50" height="50" relative="1" as="geometry">
            <mxPoint x="60" as="sourcePoint" />
            <mxPoint as="targetPoint" />
          </mxGeometry>
        </mxCell>
        <mxCell id="Ypv9IJrqPmgP_WFYDXx4-58" value="" style="endArrow=none;html=1;rounded=0;labelBackgroundColor=default;strokeColor=#000000;strokeWidth=3;fontFamily=Helvetica;fontSize=12;fontColor=default;shape=connector;" parent="Ypv9IJrqPmgP_WFYDXx4-46" edge="1">
          <mxGeometry width="50" height="50" relative="1" as="geometry">
            <mxPoint x="240" y="20.23999999999998" as="sourcePoint" />
            <mxPoint x="240" y="-19.76000000000002" as="targetPoint" />
          </mxGeometry>
        </mxCell>
        <mxCell id="Ypv9IJrqPmgP_WFYDXx4-47" value="" style="group" parent="Ypv9IJrqPmgP_WFYDXx4-55" vertex="1" connectable="0">
          <mxGeometry x="20" y="330" width="310.05999999999995" height="0.07999999999992724" as="geometry" />
        </mxCell>
        <mxCell id="Ypv9IJrqPmgP_WFYDXx4-31" value="" style="endArrow=classic;html=1;rounded=0;labelBackgroundColor=default;strokeColor=#000000;strokeWidth=3;fontFamily=Helvetica;fontSize=12;fontColor=default;entryX=0.917;entryY=0.278;entryDx=0;entryDy=0;entryPerimeter=0;endFill=1;" parent="Ypv9IJrqPmgP_WFYDXx4-47" edge="1">
          <mxGeometry width="50" height="50" relative="1" as="geometry">
            <mxPoint x="50" as="sourcePoint" />
            <mxPoint x="310.05999999999995" y="0.07999999999992724" as="targetPoint" />
          </mxGeometry>
        </mxCell>
        <mxCell id="Ypv9IJrqPmgP_WFYDXx4-45" value="" style="endArrow=none;dashed=1;html=1;dashPattern=1 3;strokeWidth=2;rounded=0;labelBackgroundColor=default;strokeColor=#000000;fontFamily=Helvetica;fontSize=12;fontColor=default;shape=connector;" parent="Ypv9IJrqPmgP_WFYDXx4-47" edge="1">
          <mxGeometry width="50" height="50" relative="1" as="geometry">
            <mxPoint x="60" as="sourcePoint" />
            <mxPoint as="targetPoint" />
          </mxGeometry>
        </mxCell>
        <mxCell id="Ypv9IJrqPmgP_WFYDXx4-48" value="&lt;h2&gt;&lt;font color=&quot;#000000&quot;&gt;im &lt;i&gt;n&lt;/i&gt;&lt;/font&gt;&lt;/h2&gt;" style="text;html=1;strokeColor=none;fillColor=none;align=center;verticalAlign=middle;whiteSpace=wrap;rounded=0;fontSize=12;fontFamily=Helvetica;fontColor=default;" parent="Ypv9IJrqPmgP_WFYDXx4-55" vertex="1">
          <mxGeometry x="60" y="120" width="60" height="30" as="geometry" />
        </mxCell>
        <mxCell id="Ypv9IJrqPmgP_WFYDXx4-49" value="&lt;h2&gt;&lt;font color=&quot;#000000&quot;&gt;im &lt;i&gt;n+1&lt;/i&gt;&lt;/font&gt;&lt;/h2&gt;" style="text;html=1;strokeColor=none;fillColor=none;align=center;verticalAlign=middle;whiteSpace=wrap;rounded=0;fontSize=12;fontFamily=Helvetica;fontColor=default;" parent="Ypv9IJrqPmgP_WFYDXx4-55" vertex="1">
          <mxGeometry x="230" y="120" width="60" height="30" as="geometry" />
        </mxCell>
        <mxCell id="Ypv9IJrqPmgP_WFYDXx4-52" value="" style="group" parent="Ypv9IJrqPmgP_WFYDXx4-55" vertex="1" connectable="0">
          <mxGeometry x="180" y="170" width="95" height="210" as="geometry" />
        </mxCell>
        <mxCell id="Ypv9IJrqPmgP_WFYDXx4-42" value="" style="group" parent="Ypv9IJrqPmgP_WFYDXx4-52" vertex="1" connectable="0">
          <mxGeometry x="47.5" height="180" as="geometry" />
        </mxCell>
        <mxCell id="Ypv9IJrqPmgP_WFYDXx4-37" value="" style="endArrow=none;html=1;rounded=0;labelBackgroundColor=default;strokeColor=#000000;strokeWidth=3;fontFamily=Helvetica;fontSize=12;fontColor=default;shape=connector;" parent="Ypv9IJrqPmgP_WFYDXx4-42" edge="1">
          <mxGeometry width="50" height="50" relative="1" as="geometry">
            <mxPoint y="180" as="sourcePoint" />
            <mxPoint y="140" as="targetPoint" />
          </mxGeometry>
        </mxCell>
        <mxCell id="Ypv9IJrqPmgP_WFYDXx4-40" value="" style="endArrow=none;html=1;rounded=0;labelBackgroundColor=default;strokeColor=#000000;strokeWidth=3;fontFamily=Helvetica;fontSize=12;fontColor=default;shape=connector;dashed=1;dashPattern=1 1;" parent="Ypv9IJrqPmgP_WFYDXx4-42" edge="1">
          <mxGeometry width="50" height="50" relative="1" as="geometry">
            <mxPoint y="140" as="sourcePoint" />
            <mxPoint as="targetPoint" />
          </mxGeometry>
        </mxCell>
        <mxCell id="Ypv9IJrqPmgP_WFYDXx4-51" value="&lt;h2&gt;&lt;font color=&quot;#000000&quot;&gt;pose &lt;i&gt;m+1&lt;/i&gt;&lt;/font&gt;&lt;/h2&gt;" style="text;html=1;strokeColor=none;fillColor=none;align=center;verticalAlign=middle;whiteSpace=wrap;rounded=0;fontSize=12;fontFamily=Helvetica;fontColor=default;" parent="Ypv9IJrqPmgP_WFYDXx4-52" vertex="1">
          <mxGeometry y="180" width="95" height="30" as="geometry" />
        </mxCell>
        <mxCell id="Ypv9IJrqPmgP_WFYDXx4-53" value="" style="group" parent="Ypv9IJrqPmgP_WFYDXx4-55" vertex="1" connectable="0">
          <mxGeometry x="80" y="170" width="70" height="210" as="geometry" />
        </mxCell>
        <mxCell id="Ypv9IJrqPmgP_WFYDXx4-41" value="" style="group" parent="Ypv9IJrqPmgP_WFYDXx4-53" vertex="1" connectable="0">
          <mxGeometry x="35" height="180" as="geometry" />
        </mxCell>
        <mxCell id="Ypv9IJrqPmgP_WFYDXx4-36" value="" style="endArrow=none;html=1;rounded=0;labelBackgroundColor=default;strokeColor=#000000;strokeWidth=3;fontFamily=Helvetica;fontSize=12;fontColor=default;shape=connector;" parent="Ypv9IJrqPmgP_WFYDXx4-41" edge="1">
          <mxGeometry width="50" height="50" relative="1" as="geometry">
            <mxPoint y="180" as="sourcePoint" />
            <mxPoint y="140" as="targetPoint" />
          </mxGeometry>
        </mxCell>
        <mxCell id="Ypv9IJrqPmgP_WFYDXx4-39" value="" style="endArrow=none;html=1;rounded=0;labelBackgroundColor=default;strokeColor=#000000;strokeWidth=3;fontFamily=Helvetica;fontSize=12;fontColor=default;shape=connector;dashed=1;dashPattern=1 1;" parent="Ypv9IJrqPmgP_WFYDXx4-41" edge="1">
          <mxGeometry width="50" height="50" relative="1" as="geometry">
            <mxPoint y="140" as="sourcePoint" />
            <mxPoint as="targetPoint" />
          </mxGeometry>
        </mxCell>
        <mxCell id="Ypv9IJrqPmgP_WFYDXx4-50" value="&lt;h2&gt;&lt;font color=&quot;#000000&quot;&gt;pose &lt;i&gt;m&lt;/i&gt;&lt;/font&gt;&lt;/h2&gt;" style="text;html=1;strokeColor=none;fillColor=none;align=center;verticalAlign=middle;whiteSpace=wrap;rounded=0;fontSize=12;fontFamily=Helvetica;fontColor=default;" parent="Ypv9IJrqPmgP_WFYDXx4-53" vertex="1">
          <mxGeometry y="180" width="70" height="30" as="geometry" />
        </mxCell>
        <mxCell id="Ypv9IJrqPmgP_WFYDXx4-54" value="&lt;h1&gt;&lt;font color=&quot;#000000&quot;&gt;Interpolation&lt;/font&gt;&lt;/h1&gt;" style="text;html=1;strokeColor=none;fillColor=none;align=center;verticalAlign=middle;whiteSpace=wrap;rounded=0;fontSize=12;fontFamily=Helvetica;fontColor=default;" parent="Ypv9IJrqPmgP_WFYDXx4-55" vertex="1">
          <mxGeometry x="40" y="30" width="280" height="30" as="geometry" />
        </mxCell>
        <mxCell id="Ypv9IJrqPmgP_WFYDXx4-59" value="" style="endArrow=none;html=1;rounded=0;labelBackgroundColor=default;strokeColor=#000000;strokeWidth=3;fontFamily=Helvetica;fontSize=12;fontColor=default;shape=connector;" parent="Ypv9IJrqPmgP_WFYDXx4-55" edge="1">
          <mxGeometry width="50" height="50" relative="1" as="geometry">
            <mxPoint x="89.75999999999999" y="189.76" as="sourcePoint" />
            <mxPoint x="89.75999999999999" y="149.76" as="targetPoint" />
          </mxGeometry>
        </mxCell>
        <mxCell id="Ypv9IJrqPmgP_WFYDXx4-71" value="" style="group" parent="1" vertex="1" connectable="0">
          <mxGeometry x="1160" y="215" width="50" height="10" as="geometry" />
        </mxCell>
        <mxCell id="Ypv9IJrqPmgP_WFYDXx4-66" value="" style="ellipse;whiteSpace=wrap;html=1;aspect=fixed;rounded=1;strokeColor=#000000;strokeWidth=2;fontFamily=Helvetica;fontSize=12;fontColor=default;fillColor=#FFFFFF;" parent="Ypv9IJrqPmgP_WFYDXx4-71" vertex="1">
          <mxGeometry width="10" height="10" as="geometry" />
        </mxCell>
        <mxCell id="Ypv9IJrqPmgP_WFYDXx4-67" value="" style="ellipse;whiteSpace=wrap;html=1;aspect=fixed;rounded=1;strokeColor=#000000;strokeWidth=2;fontFamily=Helvetica;fontSize=12;fontColor=default;fillColor=#FFFFFF;" parent="Ypv9IJrqPmgP_WFYDXx4-71" vertex="1">
          <mxGeometry x="20" width="10" height="10" as="geometry" />
        </mxCell>
        <mxCell id="Ypv9IJrqPmgP_WFYDXx4-68" value="" style="ellipse;whiteSpace=wrap;html=1;aspect=fixed;rounded=1;strokeColor=#000000;strokeWidth=2;fontFamily=Helvetica;fontSize=12;fontColor=default;fillColor=#FFFFFF;" parent="Ypv9IJrqPmgP_WFYDXx4-71" vertex="1">
          <mxGeometry x="40" width="10" height="10" as="geometry" />
        </mxCell>
        <mxCell id="Ypv9IJrqPmgP_WFYDXx4-78" value="" style="rounded=1;whiteSpace=wrap;html=1;strokeColor=#000000;strokeWidth=2;fontFamily=Helvetica;fontSize=12;fontColor=default;fillColor=#FFFFFF;" parent="1" vertex="1">
          <mxGeometry x="192.5" y="510" width="225" height="70" as="geometry" />
        </mxCell>
        <mxCell id="Ypv9IJrqPmgP_WFYDXx4-82" value="" style="group" parent="1" vertex="1" connectable="0">
          <mxGeometry x="200" y="515" width="70" height="60" as="geometry" />
        </mxCell>
        <mxCell id="Ypv9IJrqPmgP_WFYDXx4-79" value="" style="rounded=1;whiteSpace=wrap;html=1;strokeColor=#000000;strokeWidth=2;fontFamily=Helvetica;fontSize=12;fontColor=default;fillColor=#FFFFFF;" parent="Ypv9IJrqPmgP_WFYDXx4-82" vertex="1">
          <mxGeometry width="70" height="60" as="geometry" />
        </mxCell>
        <mxCell id="Ypv9IJrqPmgP_WFYDXx4-80" value="&lt;h2&gt;&lt;font color=&quot;#000000&quot;&gt;im&lt;/font&gt;&lt;/h2&gt;" style="text;html=1;strokeColor=none;fillColor=none;align=center;verticalAlign=middle;whiteSpace=wrap;rounded=0;fontSize=12;fontFamily=Helvetica;fontColor=default;" parent="Ypv9IJrqPmgP_WFYDXx4-82" vertex="1">
          <mxGeometry x="5" y="5" width="60" height="30" as="geometry" />
        </mxCell>
        <mxCell id="Ypv9IJrqPmgP_WFYDXx4-81" value="" style="html=1;verticalLabelPosition=bottom;align=center;labelBackgroundColor=#ffffff;verticalAlign=top;strokeWidth=2;strokeColor=#000000;shadow=0;dashed=0;shape=mxgraph.ios7.icons.video_conversation;rounded=1;pointerEvents=0;fontFamily=Helvetica;fontSize=12;fontColor=default;fillColor=#FFFFFF;gradientColor=none;aspect=fixed;" parent="Ypv9IJrqPmgP_WFYDXx4-82" vertex="1">
          <mxGeometry x="19" y="35" width="32" height="16" as="geometry" />
        </mxCell>
        <mxCell id="Ypv9IJrqPmgP_WFYDXx4-91" value="" style="ellipse;whiteSpace=wrap;html=1;aspect=fixed;rounded=1;strokeColor=#000000;strokeWidth=2;fontFamily=Helvetica;fontSize=12;fontColor=default;fillColor=#FFFFFF;rotation=90;" parent="1" vertex="1">
          <mxGeometry x="301.25" y="635" width="10" height="10" as="geometry" />
        </mxCell>
        <mxCell id="Ypv9IJrqPmgP_WFYDXx4-90" value="" style="ellipse;whiteSpace=wrap;html=1;aspect=fixed;rounded=1;strokeColor=#000000;strokeWidth=2;fontFamily=Helvetica;fontSize=12;fontColor=default;fillColor=#FFFFFF;rotation=90;" parent="1" vertex="1">
          <mxGeometry x="301.25" y="615" width="10" height="10" as="geometry" />
        </mxCell>
        <mxCell id="Ypv9IJrqPmgP_WFYDXx4-89" value="" style="ellipse;whiteSpace=wrap;html=1;aspect=fixed;rounded=1;strokeColor=#000000;strokeWidth=2;fontFamily=Helvetica;fontSize=12;fontColor=default;fillColor=#FFFFFF;rotation=90;" parent="1" vertex="1">
          <mxGeometry x="301.25" y="595" width="10" height="10" as="geometry" />
        </mxCell>
        <mxCell id="Ypv9IJrqPmgP_WFYDXx4-103" value="&lt;h2&gt;&lt;font color=&quot;#000000&quot;&gt;Tuple 1&lt;/font&gt;&lt;/h2&gt;" style="text;html=1;strokeColor=none;fillColor=none;align=center;verticalAlign=middle;whiteSpace=wrap;rounded=0;fontSize=12;fontFamily=Helvetica;fontColor=default;" parent="1" vertex="1">
          <mxGeometry x="251.25" y="480" width="110" height="30" as="geometry" />
        </mxCell>
        <mxCell id="Ypv9IJrqPmgP_WFYDXx4-109" value="" style="group;fillColor=#CCFF99;rounded=1;" parent="1" vertex="1" connectable="0">
          <mxGeometry x="510" y="560" width="210" height="120" as="geometry" />
        </mxCell>
        <mxCell id="Ypv9IJrqPmgP_WFYDXx4-111" value="" style="group" parent="Ypv9IJrqPmgP_WFYDXx4-109" vertex="1" connectable="0">
          <mxGeometry width="210" height="120" as="geometry" />
        </mxCell>
        <mxCell id="Ypv9IJrqPmgP_WFYDXx4-121" style="edgeStyle=none;shape=connector;rounded=0;orthogonalLoop=1;jettySize=auto;html=1;exitX=1;exitY=0.5;exitDx=0;exitDy=0;labelBackgroundColor=default;strokeColor=#000000;strokeWidth=3;fontFamily=Helvetica;fontSize=12;fontColor=default;endArrow=classic;" parent="Ypv9IJrqPmgP_WFYDXx4-111" source="Ypv9IJrqPmgP_WFYDXx4-106" edge="1">
          <mxGeometry relative="1" as="geometry">
            <mxPoint x="280" y="60" as="targetPoint" />
          </mxGeometry>
        </mxCell>
        <mxCell id="Ypv9IJrqPmgP_WFYDXx4-106" value="" style="rounded=1;whiteSpace=wrap;html=1;strokeColor=#000000;strokeWidth=2;fontFamily=Helvetica;fontSize=12;fontColor=default;fillColor=#CCFF99;" parent="Ypv9IJrqPmgP_WFYDXx4-111" vertex="1">
          <mxGeometry width="210" height="120" as="geometry" />
        </mxCell>
        <mxCell id="Ypv9IJrqPmgP_WFYDXx4-108" value="&lt;h1&gt;&lt;font color=&quot;#000000&quot;&gt;Filter redundant images&lt;/font&gt;&lt;/h1&gt;" style="text;html=1;strokeColor=none;fillColor=none;align=center;verticalAlign=middle;whiteSpace=wrap;rounded=0;fontSize=12;fontFamily=Helvetica;fontColor=default;" parent="Ypv9IJrqPmgP_WFYDXx4-111" vertex="1">
          <mxGeometry x="8.75" y="20" width="192.5" height="30" as="geometry" />
        </mxCell>
        <mxCell id="Ypv9IJrqPmgP_WFYDXx4-110" value="" style="sketch=0;aspect=fixed;pointerEvents=1;shadow=0;dashed=0;html=1;strokeColor=none;labelPosition=center;verticalLabelPosition=bottom;verticalAlign=top;align=center;fillColor=#000000;shape=mxgraph.mscae.enterprise.filter;rounded=1;strokeWidth=2;fontFamily=Helvetica;fontSize=12;fontColor=default;" parent="Ypv9IJrqPmgP_WFYDXx4-111" vertex="1">
          <mxGeometry x="89.6875" y="70" width="30.625" height="27.5625" as="geometry" />
        </mxCell>
        <mxCell id="Ypv9IJrqPmgP_WFYDXx4-114" value="" style="group" parent="1" vertex="1" connectable="0">
          <mxGeometry x="192.5" y="645" width="227.5" height="95" as="geometry" />
        </mxCell>
        <mxCell id="Ypv9IJrqPmgP_WFYDXx4-87" value="" style="rounded=1;whiteSpace=wrap;html=1;strokeColor=#000000;strokeWidth=2;fontFamily=Helvetica;fontSize=12;fontColor=default;fillColor=#FFFFFF;" parent="Ypv9IJrqPmgP_WFYDXx4-114" vertex="1">
          <mxGeometry y="25" width="227.5" height="70" as="geometry" />
        </mxCell>
        <mxCell id="Ypv9IJrqPmgP_WFYDXx4-83" value="" style="group" parent="Ypv9IJrqPmgP_WFYDXx4-114" vertex="1" connectable="0">
          <mxGeometry x="7.5" y="30" width="70" height="60" as="geometry" />
        </mxCell>
        <mxCell id="Ypv9IJrqPmgP_WFYDXx4-84" value="" style="rounded=1;whiteSpace=wrap;html=1;strokeColor=#000000;strokeWidth=2;fontFamily=Helvetica;fontSize=12;fontColor=default;fillColor=#FFFFFF;" parent="Ypv9IJrqPmgP_WFYDXx4-83" vertex="1">
          <mxGeometry width="70" height="60" as="geometry" />
        </mxCell>
        <mxCell id="Ypv9IJrqPmgP_WFYDXx4-85" value="&lt;h2&gt;&lt;font color=&quot;#000000&quot;&gt;im&lt;/font&gt;&lt;/h2&gt;" style="text;html=1;strokeColor=none;fillColor=none;align=center;verticalAlign=middle;whiteSpace=wrap;rounded=0;fontSize=12;fontFamily=Helvetica;fontColor=default;" parent="Ypv9IJrqPmgP_WFYDXx4-83" vertex="1">
          <mxGeometry x="5" y="5" width="60" height="30" as="geometry" />
        </mxCell>
        <mxCell id="Ypv9IJrqPmgP_WFYDXx4-86" value="" style="html=1;verticalLabelPosition=bottom;align=center;labelBackgroundColor=#ffffff;verticalAlign=top;strokeWidth=2;strokeColor=#000000;shadow=0;dashed=0;shape=mxgraph.ios7.icons.video_conversation;rounded=1;pointerEvents=0;fontFamily=Helvetica;fontSize=12;fontColor=default;fillColor=#FFFFFF;gradientColor=none;aspect=fixed;" parent="Ypv9IJrqPmgP_WFYDXx4-83" vertex="1">
          <mxGeometry x="19" y="35" width="32" height="16" as="geometry" />
        </mxCell>
        <mxCell id="Ypv9IJrqPmgP_WFYDXx4-93" value="" style="group" parent="Ypv9IJrqPmgP_WFYDXx4-114" vertex="1" connectable="0">
          <mxGeometry x="147.5" y="30" width="70" height="60" as="geometry" />
        </mxCell>
        <mxCell id="Ypv9IJrqPmgP_WFYDXx4-98" value="" style="group" parent="Ypv9IJrqPmgP_WFYDXx4-93" vertex="1" connectable="0">
          <mxGeometry width="70" height="60" as="geometry" />
        </mxCell>
        <mxCell id="Ypv9IJrqPmgP_WFYDXx4-94" value="" style="rounded=1;whiteSpace=wrap;html=1;strokeColor=#000000;strokeWidth=2;fontFamily=Helvetica;fontSize=12;fontColor=default;fillColor=#FFFFFF;" parent="Ypv9IJrqPmgP_WFYDXx4-98" vertex="1">
          <mxGeometry width="70" height="60" as="geometry" />
        </mxCell>
        <mxCell id="Ypv9IJrqPmgP_WFYDXx4-95" value="&lt;h2&gt;&lt;font color=&quot;#000000&quot;&gt;pose&lt;/font&gt;&lt;/h2&gt;" style="text;html=1;strokeColor=none;fillColor=none;align=center;verticalAlign=middle;whiteSpace=wrap;rounded=0;fontSize=12;fontFamily=Helvetica;fontColor=default;" parent="Ypv9IJrqPmgP_WFYDXx4-98" vertex="1">
          <mxGeometry x="5" y="5" width="60" height="30" as="geometry" />
        </mxCell>
        <mxCell id="Ypv9IJrqPmgP_WFYDXx4-97" value="" style="html=1;verticalLabelPosition=bottom;align=center;labelBackgroundColor=#ffffff;verticalAlign=top;strokeWidth=2;strokeColor=#000000;shadow=0;dashed=0;shape=mxgraph.ios7.icons.location;rounded=0;fontFamily=Helvetica;fontSize=12;fontColor=default;fillColor=none;gradientColor=none;aspect=fixed;" parent="Ypv9IJrqPmgP_WFYDXx4-98" vertex="1">
          <mxGeometry x="25" y="30" width="20" height="25" as="geometry" />
        </mxCell>
        <mxCell id="Ypv9IJrqPmgP_WFYDXx4-115" value="" style="group" parent="Ypv9IJrqPmgP_WFYDXx4-93" vertex="1" connectable="0">
          <mxGeometry y="-160" width="70" height="60" as="geometry" />
        </mxCell>
        <mxCell id="Ypv9IJrqPmgP_WFYDXx4-100" value="" style="rounded=1;whiteSpace=wrap;html=1;strokeColor=#000000;strokeWidth=2;fontFamily=Helvetica;fontSize=12;fontColor=default;fillColor=#FFFFFF;" parent="Ypv9IJrqPmgP_WFYDXx4-115" vertex="1">
          <mxGeometry width="70" height="60" as="geometry" />
        </mxCell>
        <mxCell id="Ypv9IJrqPmgP_WFYDXx4-101" value="&lt;h2&gt;&lt;font color=&quot;#000000&quot;&gt;pose&lt;/font&gt;&lt;/h2&gt;" style="text;html=1;strokeColor=none;fillColor=none;align=center;verticalAlign=middle;whiteSpace=wrap;rounded=0;fontSize=12;fontFamily=Helvetica;fontColor=default;" parent="Ypv9IJrqPmgP_WFYDXx4-115" vertex="1">
          <mxGeometry x="5" y="5" width="60" height="30" as="geometry" />
        </mxCell>
        <mxCell id="Ypv9IJrqPmgP_WFYDXx4-102" value="" style="html=1;verticalLabelPosition=bottom;align=center;labelBackgroundColor=#ffffff;verticalAlign=top;strokeWidth=2;strokeColor=#000000;shadow=0;dashed=0;shape=mxgraph.ios7.icons.location;rounded=0;fontFamily=Helvetica;fontSize=12;fontColor=default;fillColor=none;gradientColor=none;aspect=fixed;" parent="Ypv9IJrqPmgP_WFYDXx4-115" vertex="1">
          <mxGeometry x="25" y="30" width="20" height="25" as="geometry" />
        </mxCell>
        <mxCell id="Ypv9IJrqPmgP_WFYDXx4-104" value="&lt;h2&gt;&lt;font color=&quot;#000000&quot;&gt;Tuple &lt;i&gt;N&lt;/i&gt;&lt;/font&gt;&lt;/h2&gt;" style="text;html=1;strokeColor=none;fillColor=none;align=center;verticalAlign=middle;whiteSpace=wrap;rounded=0;fontSize=12;fontFamily=Helvetica;fontColor=default;" parent="Ypv9IJrqPmgP_WFYDXx4-114" vertex="1">
          <mxGeometry x="57.5" width="110" height="30" as="geometry" />
        </mxCell>
        <mxCell id="Ypv9IJrqPmgP_WFYDXx4-171" value="" style="html=1;verticalLabelPosition=bottom;align=center;labelBackgroundColor=#ffffff;verticalAlign=top;strokeWidth=2;strokeColor=#000000;shadow=0;dashed=0;shape=mxgraph.ios7.icons.message;rounded=1;fontFamily=Helvetica;fontSize=12;fontColor=default;fillColor=#FFFFFF;" parent="Ypv9IJrqPmgP_WFYDXx4-114" vertex="1">
          <mxGeometry x="101.25" y="50.25" width="25" height="19.5" as="geometry" />
        </mxCell>
        <mxCell id="Ypv9IJrqPmgP_WFYDXx4-75" value="" style="ellipse;whiteSpace=wrap;html=1;aspect=fixed;rounded=1;strokeColor=#000000;strokeWidth=2;fontFamily=Helvetica;fontSize=12;fontColor=default;fillColor=#FFFFFF;" parent="1" vertex="1">
          <mxGeometry x="80" y="615" width="10" height="10" as="geometry" />
        </mxCell>
        <mxCell id="Ypv9IJrqPmgP_WFYDXx4-74" value="" style="ellipse;whiteSpace=wrap;html=1;aspect=fixed;rounded=1;strokeColor=#000000;strokeWidth=2;fontFamily=Helvetica;fontSize=12;fontColor=default;fillColor=#FFFFFF;" parent="1" vertex="1">
          <mxGeometry x="60" y="615" width="10" height="10" as="geometry" />
        </mxCell>
        <mxCell id="Ypv9IJrqPmgP_WFYDXx4-73" value="" style="ellipse;whiteSpace=wrap;html=1;aspect=fixed;rounded=1;strokeColor=#000000;strokeWidth=2;fontFamily=Helvetica;fontSize=12;fontColor=default;fillColor=#FFFFFF;" parent="1" vertex="1">
          <mxGeometry x="40" y="615" width="10" height="10" as="geometry" />
        </mxCell>
        <mxCell id="Ypv9IJrqPmgP_WFYDXx4-168" value="" style="html=1;verticalLabelPosition=bottom;align=center;labelBackgroundColor=#ffffff;verticalAlign=top;strokeWidth=2;strokeColor=#000000;shadow=0;dashed=0;shape=mxgraph.ios7.icons.message;rounded=1;fontFamily=Helvetica;fontSize=12;fontColor=default;fillColor=#FFFFFF;" parent="1" vertex="1">
          <mxGeometry x="293.75" y="535.25" width="25" height="19.5" as="geometry" />
        </mxCell>
        <mxCell id="Ypv9IJrqPmgP_WFYDXx4-176" value="" style="group" parent="1" vertex="1" connectable="0">
          <mxGeometry x="400" y="240" width="240" height="120" as="geometry" />
        </mxCell>
        <mxCell id="X5iQuCoutbYAk6WdKfz_-11" value="" style="rounded=1;whiteSpace=wrap;html=1;pointerEvents=0;fontFamily=Helvetica;fontSize=12;fontColor=default;fillColor=#CCFF99;gradientColor=none;strokeColor=#000000;strokeWidth=2;" parent="Ypv9IJrqPmgP_WFYDXx4-176" vertex="1">
          <mxGeometry width="240" height="120" as="geometry" />
        </mxCell>
        <mxCell id="X5iQuCoutbYAk6WdKfz_-12" value="&lt;h1&gt;&lt;font color=&quot;#000000&quot;&gt;Pose messages&lt;/font&gt;&lt;/h1&gt;" style="text;html=1;strokeColor=none;fillColor=none;align=center;verticalAlign=middle;whiteSpace=wrap;rounded=0;fontSize=12;fontFamily=Helvetica;fontColor=default;" parent="Ypv9IJrqPmgP_WFYDXx4-176" vertex="1">
          <mxGeometry x="10" y="15" width="220" height="30" as="geometry" />
        </mxCell>
        <mxCell id="X5iQuCoutbYAk6WdKfz_-13" value="" style="html=1;verticalLabelPosition=bottom;align=center;labelBackgroundColor=#ffffff;verticalAlign=top;strokeWidth=2;strokeColor=#000000;shadow=0;dashed=0;shape=mxgraph.ios7.icons.location;rounded=0;fontFamily=Helvetica;fontSize=12;fontColor=default;fillColor=#FFFFFF;gradientColor=none;aspect=fixed;" parent="Ypv9IJrqPmgP_WFYDXx4-176" vertex="1">
          <mxGeometry x="105" y="60" width="30" height="37.5" as="geometry" />
        </mxCell>
        <mxCell id="b7XjPN8m84lvSE9hFcEj-2" value="" style="group" vertex="1" connectable="0" parent="1">
          <mxGeometry x="775" y="440" width="280" height="320" as="geometry" />
        </mxCell>
        <mxCell id="Ypv9IJrqPmgP_WFYDXx4-148" value="" style="group;rounded=1;fillColor=#CCFF99;" parent="b7XjPN8m84lvSE9hFcEj-2" vertex="1" connectable="0">
          <mxGeometry x="15" y="40" width="250" height="280" as="geometry" />
        </mxCell>
        <mxCell id="Ypv9IJrqPmgP_WFYDXx4-122" value="" style="rounded=1;whiteSpace=wrap;html=1;strokeColor=#000000;strokeWidth=2;fontFamily=Helvetica;fontSize=12;fontColor=default;fillColor=#CCFF99;" parent="Ypv9IJrqPmgP_WFYDXx4-148" vertex="1">
          <mxGeometry width="250" height="280" as="geometry" />
        </mxCell>
        <mxCell id="Ypv9IJrqPmgP_WFYDXx4-123" value="" style="rounded=1;whiteSpace=wrap;html=1;strokeColor=#000000;strokeWidth=2;fontFamily=Helvetica;fontSize=12;fontColor=default;fillColor=#FFFFFF;" parent="Ypv9IJrqPmgP_WFYDXx4-148" vertex="1">
          <mxGeometry x="12.5" y="30" width="225" height="70" as="geometry" />
        </mxCell>
        <mxCell id="Ypv9IJrqPmgP_WFYDXx4-124" value="" style="group" parent="Ypv9IJrqPmgP_WFYDXx4-148" vertex="1" connectable="0">
          <mxGeometry x="20" y="35" width="80" height="60" as="geometry" />
        </mxCell>
        <mxCell id="Ypv9IJrqPmgP_WFYDXx4-153" value="" style="group" parent="Ypv9IJrqPmgP_WFYDXx4-124" vertex="1" connectable="0">
          <mxGeometry width="80" height="60" as="geometry" />
        </mxCell>
        <mxCell id="Ypv9IJrqPmgP_WFYDXx4-125" value="" style="rounded=1;whiteSpace=wrap;html=1;strokeColor=#000000;strokeWidth=2;fontFamily=Helvetica;fontSize=12;fontColor=default;fillColor=#FFFFFF;" parent="Ypv9IJrqPmgP_WFYDXx4-153" vertex="1">
          <mxGeometry width="80" height="60" as="geometry" />
        </mxCell>
        <mxCell id="Ypv9IJrqPmgP_WFYDXx4-126" value="&lt;h2&gt;&lt;font color=&quot;#000000&quot;&gt;Tuple &lt;i&gt;p&lt;/i&gt;&lt;/font&gt;&lt;/h2&gt;" style="text;html=1;strokeColor=none;fillColor=none;align=center;verticalAlign=middle;whiteSpace=wrap;rounded=0;fontSize=12;fontFamily=Helvetica;fontColor=default;" parent="Ypv9IJrqPmgP_WFYDXx4-153" vertex="1">
          <mxGeometry x="5.7142857142857135" y="5" width="68.57142857142857" height="30" as="geometry" />
        </mxCell>
        <mxCell id="Ypv9IJrqPmgP_WFYDXx4-182" value="" style="group" parent="Ypv9IJrqPmgP_WFYDXx4-153" vertex="1" connectable="0">
          <mxGeometry y="30" width="80" height="30" as="geometry" />
        </mxCell>
        <mxCell id="Ypv9IJrqPmgP_WFYDXx4-178" value="&lt;h1&gt;&lt;font color=&quot;#000000&quot;&gt;(&amp;nbsp; &amp;nbsp;,&amp;nbsp; &amp;nbsp;)&lt;/font&gt;&lt;/h1&gt;" style="text;html=1;strokeColor=none;fillColor=none;align=center;verticalAlign=middle;whiteSpace=wrap;rounded=0;fontSize=12;fontFamily=Helvetica;fontColor=default;" parent="Ypv9IJrqPmgP_WFYDXx4-182" vertex="1">
          <mxGeometry width="80" height="30" as="geometry" />
        </mxCell>
        <mxCell id="Ypv9IJrqPmgP_WFYDXx4-179" value="" style="html=1;verticalLabelPosition=bottom;align=center;labelBackgroundColor=#ffffff;verticalAlign=top;strokeWidth=2;strokeColor=#000000;shadow=0;dashed=0;shape=mxgraph.ios7.icons.video_conversation;rounded=1;pointerEvents=0;fontFamily=Helvetica;fontSize=12;fontColor=default;fillColor=#FFFFFF;gradientColor=none;aspect=fixed;" parent="Ypv9IJrqPmgP_WFYDXx4-182" vertex="1">
          <mxGeometry x="19" y="11.009999999999991" width="16" height="8" as="geometry" />
        </mxCell>
        <mxCell id="Ypv9IJrqPmgP_WFYDXx4-181" value="" style="html=1;verticalLabelPosition=bottom;align=center;labelBackgroundColor=#ffffff;verticalAlign=top;strokeWidth=2;strokeColor=#000000;shadow=0;dashed=0;shape=mxgraph.ios7.icons.location;rounded=0;fontFamily=Helvetica;fontSize=12;fontColor=default;fillColor=none;gradientColor=none;aspect=fixed;" parent="Ypv9IJrqPmgP_WFYDXx4-182" vertex="1">
          <mxGeometry x="48" y="6.8799999999999955" width="13" height="16.25" as="geometry" />
        </mxCell>
        <mxCell id="Ypv9IJrqPmgP_WFYDXx4-128" value="" style="ellipse;whiteSpace=wrap;html=1;aspect=fixed;rounded=1;strokeColor=#000000;strokeWidth=2;fontFamily=Helvetica;fontSize=12;fontColor=default;fillColor=#FFFFFF;rotation=90;" parent="Ypv9IJrqPmgP_WFYDXx4-148" vertex="1">
          <mxGeometry x="121.25" y="155" width="10" height="10" as="geometry" />
        </mxCell>
        <mxCell id="Ypv9IJrqPmgP_WFYDXx4-129" value="" style="ellipse;whiteSpace=wrap;html=1;aspect=fixed;rounded=1;strokeColor=#000000;strokeWidth=2;fontFamily=Helvetica;fontSize=12;fontColor=default;fillColor=#FFFFFF;rotation=90;" parent="Ypv9IJrqPmgP_WFYDXx4-148" vertex="1">
          <mxGeometry x="121.25" y="135" width="10" height="10" as="geometry" />
        </mxCell>
        <mxCell id="Ypv9IJrqPmgP_WFYDXx4-130" value="" style="ellipse;whiteSpace=wrap;html=1;aspect=fixed;rounded=1;strokeColor=#000000;strokeWidth=2;fontFamily=Helvetica;fontSize=12;fontColor=default;fillColor=#FFFFFF;rotation=90;" parent="Ypv9IJrqPmgP_WFYDXx4-148" vertex="1">
          <mxGeometry x="121.25" y="115" width="10" height="10" as="geometry" />
        </mxCell>
        <mxCell id="Ypv9IJrqPmgP_WFYDXx4-131" value="&lt;h2&gt;&lt;font color=&quot;#000000&quot;&gt;Entry 1&lt;/font&gt;&lt;/h2&gt;" style="text;html=1;strokeColor=none;fillColor=none;align=center;verticalAlign=middle;whiteSpace=wrap;rounded=0;fontSize=12;fontFamily=Helvetica;fontColor=default;" parent="Ypv9IJrqPmgP_WFYDXx4-148" vertex="1">
          <mxGeometry x="71.25" width="110" height="30" as="geometry" />
        </mxCell>
        <mxCell id="Ypv9IJrqPmgP_WFYDXx4-132" value="" style="group" parent="Ypv9IJrqPmgP_WFYDXx4-148" vertex="1" connectable="0">
          <mxGeometry x="12.5" y="165" width="227.5" height="95" as="geometry" />
        </mxCell>
        <mxCell id="Ypv9IJrqPmgP_WFYDXx4-133" value="" style="rounded=1;whiteSpace=wrap;html=1;strokeColor=#000000;strokeWidth=2;fontFamily=Helvetica;fontSize=12;fontColor=default;fillColor=#FFFFFF;" parent="Ypv9IJrqPmgP_WFYDXx4-132" vertex="1">
          <mxGeometry y="25" width="227.5" height="70" as="geometry" />
        </mxCell>
        <mxCell id="Ypv9IJrqPmgP_WFYDXx4-147" value="&lt;h2&gt;&lt;font color=&quot;#000000&quot;&gt;Entry &lt;i&gt;M&lt;/i&gt;&lt;/font&gt;&lt;/h2&gt;" style="text;html=1;strokeColor=none;fillColor=none;align=center;verticalAlign=middle;whiteSpace=wrap;rounded=0;fontSize=12;fontFamily=Helvetica;fontColor=default;" parent="Ypv9IJrqPmgP_WFYDXx4-132" vertex="1">
          <mxGeometry x="57.5" width="110" height="30" as="geometry" />
        </mxCell>
        <mxCell id="Ypv9IJrqPmgP_WFYDXx4-158" value="" style="group" parent="Ypv9IJrqPmgP_WFYDXx4-132" vertex="1" connectable="0">
          <mxGeometry x="7.5" y="30" width="80" height="60" as="geometry" />
        </mxCell>
        <mxCell id="Ypv9IJrqPmgP_WFYDXx4-159" value="" style="group" parent="Ypv9IJrqPmgP_WFYDXx4-158" vertex="1" connectable="0">
          <mxGeometry width="80" height="60" as="geometry" />
        </mxCell>
        <mxCell id="Ypv9IJrqPmgP_WFYDXx4-160" value="" style="rounded=1;whiteSpace=wrap;html=1;strokeColor=#000000;strokeWidth=2;fontFamily=Helvetica;fontSize=12;fontColor=default;fillColor=#FFFFFF;" parent="Ypv9IJrqPmgP_WFYDXx4-159" vertex="1">
          <mxGeometry width="80" height="60" as="geometry" />
        </mxCell>
        <mxCell id="Ypv9IJrqPmgP_WFYDXx4-161" value="&lt;h2&gt;&lt;font color=&quot;#000000&quot;&gt;Tuple &lt;i&gt;q&lt;/i&gt;&lt;/font&gt;&lt;/h2&gt;" style="text;html=1;strokeColor=none;fillColor=none;align=center;verticalAlign=middle;whiteSpace=wrap;rounded=0;fontSize=12;fontFamily=Helvetica;fontColor=default;" parent="Ypv9IJrqPmgP_WFYDXx4-159" vertex="1">
          <mxGeometry x="5.7142857142857135" y="5" width="68.57142857142857" height="30" as="geometry" />
        </mxCell>
        <mxCell id="Ypv9IJrqPmgP_WFYDXx4-191" value="" style="group" parent="Ypv9IJrqPmgP_WFYDXx4-159" vertex="1" connectable="0">
          <mxGeometry y="30" width="80" height="30" as="geometry" />
        </mxCell>
        <mxCell id="Ypv9IJrqPmgP_WFYDXx4-192" value="&lt;h1&gt;&lt;font color=&quot;#000000&quot;&gt;(&amp;nbsp; &amp;nbsp;,&amp;nbsp; &amp;nbsp;)&lt;/font&gt;&lt;/h1&gt;" style="text;html=1;strokeColor=none;fillColor=none;align=center;verticalAlign=middle;whiteSpace=wrap;rounded=0;fontSize=12;fontFamily=Helvetica;fontColor=default;" parent="Ypv9IJrqPmgP_WFYDXx4-191" vertex="1">
          <mxGeometry width="80" height="30" as="geometry" />
        </mxCell>
        <mxCell id="Ypv9IJrqPmgP_WFYDXx4-193" value="" style="html=1;verticalLabelPosition=bottom;align=center;labelBackgroundColor=#ffffff;verticalAlign=top;strokeWidth=2;strokeColor=#000000;shadow=0;dashed=0;shape=mxgraph.ios7.icons.video_conversation;rounded=1;pointerEvents=0;fontFamily=Helvetica;fontSize=12;fontColor=default;fillColor=#FFFFFF;gradientColor=none;aspect=fixed;" parent="Ypv9IJrqPmgP_WFYDXx4-191" vertex="1">
          <mxGeometry x="19" y="11.009999999999991" width="16" height="8" as="geometry" />
        </mxCell>
        <mxCell id="Ypv9IJrqPmgP_WFYDXx4-194" value="" style="html=1;verticalLabelPosition=bottom;align=center;labelBackgroundColor=#ffffff;verticalAlign=top;strokeWidth=2;strokeColor=#000000;shadow=0;dashed=0;shape=mxgraph.ios7.icons.location;rounded=0;fontFamily=Helvetica;fontSize=12;fontColor=default;fillColor=none;gradientColor=none;aspect=fixed;" parent="Ypv9IJrqPmgP_WFYDXx4-191" vertex="1">
          <mxGeometry x="48" y="6.8799999999999955" width="13" height="16.25" as="geometry" />
        </mxCell>
        <mxCell id="Ypv9IJrqPmgP_WFYDXx4-163" value="" style="group" parent="Ypv9IJrqPmgP_WFYDXx4-132" vertex="1" connectable="0">
          <mxGeometry x="137.5" y="30" width="80" height="60" as="geometry" />
        </mxCell>
        <mxCell id="Ypv9IJrqPmgP_WFYDXx4-164" value="" style="group" parent="Ypv9IJrqPmgP_WFYDXx4-163" vertex="1" connectable="0">
          <mxGeometry width="80" height="60" as="geometry" />
        </mxCell>
        <mxCell id="Ypv9IJrqPmgP_WFYDXx4-165" value="" style="rounded=1;whiteSpace=wrap;html=1;strokeColor=#000000;strokeWidth=2;fontFamily=Helvetica;fontSize=12;fontColor=default;fillColor=#FFFFFF;" parent="Ypv9IJrqPmgP_WFYDXx4-164" vertex="1">
          <mxGeometry width="80" height="60" as="geometry" />
        </mxCell>
        <mxCell id="Ypv9IJrqPmgP_WFYDXx4-166" value="&lt;h2&gt;&lt;font color=&quot;#000000&quot;&gt;Tuple &lt;i&gt;r&lt;/i&gt;&lt;/font&gt;&lt;/h2&gt;" style="text;html=1;strokeColor=none;fillColor=none;align=center;verticalAlign=middle;whiteSpace=wrap;rounded=0;fontSize=12;fontFamily=Helvetica;fontColor=default;" parent="Ypv9IJrqPmgP_WFYDXx4-164" vertex="1">
          <mxGeometry x="5.7142857142857135" y="5" width="68.57142857142857" height="30" as="geometry" />
        </mxCell>
        <mxCell id="Ypv9IJrqPmgP_WFYDXx4-187" value="" style="group" parent="Ypv9IJrqPmgP_WFYDXx4-164" vertex="1" connectable="0">
          <mxGeometry y="30" width="80" height="30" as="geometry" />
        </mxCell>
        <mxCell id="Ypv9IJrqPmgP_WFYDXx4-188" value="&lt;h1&gt;&lt;font color=&quot;#000000&quot;&gt;(&amp;nbsp; &amp;nbsp;,&amp;nbsp; &amp;nbsp;)&lt;/font&gt;&lt;/h1&gt;" style="text;html=1;strokeColor=none;fillColor=none;align=center;verticalAlign=middle;whiteSpace=wrap;rounded=0;fontSize=12;fontFamily=Helvetica;fontColor=default;" parent="Ypv9IJrqPmgP_WFYDXx4-187" vertex="1">
          <mxGeometry width="80" height="30" as="geometry" />
        </mxCell>
        <mxCell id="Ypv9IJrqPmgP_WFYDXx4-189" value="" style="html=1;verticalLabelPosition=bottom;align=center;labelBackgroundColor=#ffffff;verticalAlign=top;strokeWidth=2;strokeColor=#000000;shadow=0;dashed=0;shape=mxgraph.ios7.icons.video_conversation;rounded=1;pointerEvents=0;fontFamily=Helvetica;fontSize=12;fontColor=default;fillColor=#FFFFFF;gradientColor=none;aspect=fixed;" parent="Ypv9IJrqPmgP_WFYDXx4-187" vertex="1">
          <mxGeometry x="19" y="11.009999999999991" width="16" height="8" as="geometry" />
        </mxCell>
        <mxCell id="Ypv9IJrqPmgP_WFYDXx4-190" value="" style="html=1;verticalLabelPosition=bottom;align=center;labelBackgroundColor=#ffffff;verticalAlign=top;strokeWidth=2;strokeColor=#000000;shadow=0;dashed=0;shape=mxgraph.ios7.icons.location;rounded=0;fontFamily=Helvetica;fontSize=12;fontColor=default;fillColor=none;gradientColor=none;aspect=fixed;" parent="Ypv9IJrqPmgP_WFYDXx4-187" vertex="1">
          <mxGeometry x="48" y="6.8799999999999955" width="13" height="16.25" as="geometry" />
        </mxCell>
        <mxCell id="Ypv9IJrqPmgP_WFYDXx4-154" value="" style="group" parent="Ypv9IJrqPmgP_WFYDXx4-148" vertex="1" connectable="0">
          <mxGeometry x="150" y="35" width="80" height="60" as="geometry" />
        </mxCell>
        <mxCell id="Ypv9IJrqPmgP_WFYDXx4-155" value="" style="rounded=1;whiteSpace=wrap;html=1;strokeColor=#000000;strokeWidth=2;fontFamily=Helvetica;fontSize=12;fontColor=default;fillColor=#FFFFFF;" parent="Ypv9IJrqPmgP_WFYDXx4-154" vertex="1">
          <mxGeometry width="80" height="60" as="geometry" />
        </mxCell>
        <mxCell id="Ypv9IJrqPmgP_WFYDXx4-156" value="&lt;h2&gt;&lt;font color=&quot;#000000&quot;&gt;Tuple &lt;i&gt;q&lt;/i&gt;&lt;/font&gt;&lt;/h2&gt;" style="text;html=1;strokeColor=none;fillColor=none;align=center;verticalAlign=middle;whiteSpace=wrap;rounded=0;fontSize=12;fontFamily=Helvetica;fontColor=default;" parent="Ypv9IJrqPmgP_WFYDXx4-154" vertex="1">
          <mxGeometry x="5.7142857142857135" y="5" width="68.57142857142857" height="30" as="geometry" />
        </mxCell>
        <mxCell id="Ypv9IJrqPmgP_WFYDXx4-183" value="" style="group" parent="Ypv9IJrqPmgP_WFYDXx4-154" vertex="1" connectable="0">
          <mxGeometry y="30" width="80" height="30" as="geometry" />
        </mxCell>
        <mxCell id="Ypv9IJrqPmgP_WFYDXx4-184" value="&lt;h1&gt;&lt;font color=&quot;#000000&quot;&gt;(&amp;nbsp; &amp;nbsp;,&amp;nbsp; &amp;nbsp;)&lt;/font&gt;&lt;/h1&gt;" style="text;html=1;strokeColor=none;fillColor=none;align=center;verticalAlign=middle;whiteSpace=wrap;rounded=0;fontSize=12;fontFamily=Helvetica;fontColor=default;" parent="Ypv9IJrqPmgP_WFYDXx4-183" vertex="1">
          <mxGeometry width="80" height="30" as="geometry" />
        </mxCell>
        <mxCell id="Ypv9IJrqPmgP_WFYDXx4-185" value="" style="html=1;verticalLabelPosition=bottom;align=center;labelBackgroundColor=#ffffff;verticalAlign=top;strokeWidth=2;strokeColor=#000000;shadow=0;dashed=0;shape=mxgraph.ios7.icons.video_conversation;rounded=1;pointerEvents=0;fontFamily=Helvetica;fontSize=12;fontColor=default;fillColor=#FFFFFF;gradientColor=none;aspect=fixed;" parent="Ypv9IJrqPmgP_WFYDXx4-183" vertex="1">
          <mxGeometry x="19" y="11.009999999999991" width="16" height="8" as="geometry" />
        </mxCell>
        <mxCell id="Ypv9IJrqPmgP_WFYDXx4-186" value="" style="html=1;verticalLabelPosition=bottom;align=center;labelBackgroundColor=#ffffff;verticalAlign=top;strokeWidth=2;strokeColor=#000000;shadow=0;dashed=0;shape=mxgraph.ios7.icons.location;rounded=0;fontFamily=Helvetica;fontSize=12;fontColor=default;fillColor=none;gradientColor=none;aspect=fixed;" parent="Ypv9IJrqPmgP_WFYDXx4-183" vertex="1">
          <mxGeometry x="48" y="6.8799999999999955" width="13" height="16.25" as="geometry" />
        </mxCell>
        <mxCell id="b7XjPN8m84lvSE9hFcEj-1" value="&lt;h1&gt;&lt;font color=&quot;#000000&quot;&gt;Image Overlap&lt;/font&gt;&lt;/h1&gt;" style="text;html=1;strokeColor=none;fillColor=none;align=center;verticalAlign=middle;whiteSpace=wrap;rounded=0;fontSize=12;fontFamily=Helvetica;fontColor=default;" vertex="1" parent="b7XjPN8m84lvSE9hFcEj-2">
          <mxGeometry width="280" height="30" as="geometry" />
        </mxCell>
        <mxCell id="b7XjPN8m84lvSE9hFcEj-5" value="&lt;h1&gt;&lt;font color=&quot;#000000&quot;&gt;Tuple creation&lt;/font&gt;&lt;/h1&gt;" style="text;html=1;strokeColor=none;fillColor=none;align=center;verticalAlign=middle;whiteSpace=wrap;rounded=0;fontSize=12;fontFamily=Helvetica;fontColor=default;" vertex="1" parent="1">
          <mxGeometry x="166.25" y="440" width="280" height="30" as="geometry" />
        </mxCell>
      </root>
    </mxGraphModel>
  </diagram>
</mxfile>
